<svg width="621" height="323" viewBox="0 0 621 323" fill="none" xmlns="http://www.w3.org/2000/svg">
<path opacity="0.35" d="M130.855 7.09999L130.467 8.02148L130.47 8.02262L130.855 7.09999ZM148.855 21.6L148.004 22.1251L148.008 22.1316L148.855 21.6ZM148.855 66L148.019 65.4517L148.018 65.454L148.855 66ZM130.855 79.6L131.211 80.5347L131.215 80.5331L130.855 79.6ZM79.7555 84.2V83.2H78.7555V84.2H79.7555ZM79.7555 151.6H78.7555V152.6H79.7555V151.6ZM97.6555 151.6H98.6555V150.6H97.6555V151.6ZM97.6555 152V153H98.6555V152H97.6555ZM30.6555 152H29.6555V153H30.6555V152ZM30.6555 151.6V150.6H29.6555V151.6H30.6555ZM48.6555 151.6V152.6H49.6555V151.6H48.6555ZM48.6555 2.39999H49.6555V1.39999H48.6555V2.39999ZM30.6555 2.39999H29.6555V3.39999H30.6555V2.39999ZM30.6555 1.99998V0.999985H29.6555V1.99998H30.6555ZM79.7555 83.8H78.7555V84.8H79.7555V83.8ZM106.855 80.2L107.464 80.9939L107.474 80.9857L106.855 80.2ZM114.555 70.6L113.667 70.141L113.664 70.1468L114.555 70.6ZM119.155 57.7L120.133 57.9124L120.133 57.9095L119.155 57.7ZM119.155 30.1L118.176 30.3013L118.176 30.3039L119.155 30.1ZM114.555 16.5L113.653 16.93L113.658 16.9415L114.555 16.5ZM106.855 6.3L106.217 7.06956L106.855 6.3ZM79.7555 2.39999V1.39999H78.7555V2.39999H79.7555ZM99.6555 2.99998C112.311 2.99998 122.566 4.69123 130.467 8.02148L131.244 6.1785C123.012 2.70875 112.467 0.999985 99.6555 0.999985V2.99998ZM130.47 8.02262C138.449 11.3583 144.268 16.0691 148.004 22.1251L149.707 21.0749C145.71 14.5975 139.528 9.6417 131.241 6.17736L130.47 8.02262ZM148.008 22.1316C151.826 28.2134 153.755 35.4886 153.755 44H155.755C155.755 35.178 153.752 27.52 149.702 21.0684L148.008 22.1316ZM153.755 44C153.755 52.5128 151.825 59.6458 148.019 65.4517L149.692 66.5482C153.752 60.3542 155.755 52.8205 155.755 44H153.755ZM148.018 65.454C144.29 71.174 138.479 75.5914 130.496 78.6668L131.215 80.5331C139.499 77.3419 145.688 72.6926 149.693 66.546L148.018 65.454ZM130.5 78.6653C122.587 81.6734 112.32 83.2 99.6555 83.2V85.2C112.458 85.2 122.99 83.6599 131.211 80.5347L130.5 78.6653ZM99.6555 83.2H79.7555V85.2H99.6555V83.2ZM78.7555 84.2V151.6H80.7555V84.2H78.7555ZM79.7555 152.6H97.6555V150.6H79.7555V152.6ZM96.6555 151.6V152H98.6555V151.6H96.6555ZM97.6555 151H30.6555V153H97.6555V151ZM31.6555 152V151.6H29.6555V152H31.6555ZM30.6555 152.6H48.6555V150.6H30.6555V152.6ZM49.6555 151.6V2.39999H47.6555V151.6H49.6555ZM48.6555 1.39999H30.6555V3.39999H48.6555V1.39999ZM31.6555 2.39999V1.99998H29.6555V2.39999H31.6555ZM30.6555 2.99998H99.6555V0.999985H30.6555V2.99998ZM79.7555 84.8H95.6555V82.8H79.7555V84.8ZM95.6555 84.8C100.186 84.8 104.138 83.5408 107.464 80.9939L106.247 79.4061C103.306 81.6592 99.7918 82.8 95.6555 82.8V84.8ZM107.474 80.9857C110.733 78.4202 113.388 75.102 115.447 71.0532L113.664 70.1468C111.723 73.9647 109.245 77.0465 106.237 79.4143L107.474 80.9857ZM115.444 71.059C117.553 66.9776 119.115 62.5943 120.133 57.9124L118.178 57.4876C117.196 62.0057 115.692 66.2224 113.667 70.141L115.444 71.059ZM120.133 57.9095C121.147 53.1787 121.655 48.5417 121.655 44H119.655C119.655 48.3916 119.164 52.888 118.178 57.4905L120.133 57.9095ZM121.655 44C121.655 39.4585 121.147 34.7567 120.134 29.896L118.176 30.3039C119.164 35.0433 119.655 39.6081 119.655 44H121.655ZM120.135 29.8987C119.119 24.9539 117.559 20.3393 115.453 16.0585L113.658 16.9415C115.685 21.0607 117.192 25.5128 118.176 30.3013L120.135 29.8987ZM115.458 16.0701C113.405 11.7577 110.754 8.23547 107.494 5.53043L106.217 7.06956C109.224 9.56451 111.706 12.8423 113.653 16.9299L115.458 16.0701ZM107.494 5.53043C104.169 2.77149 100.206 1.39999 95.6555 1.39999V3.39999C99.7718 3.39999 103.275 4.62849 106.217 7.06956L107.494 5.53043ZM95.6555 1.39999H79.7555V3.39999H95.6555V1.39999ZM78.7555 2.39999V83.8H80.7555V2.39999H78.7555ZM209.916 148.2L209.498 149.108L209.501 149.11L209.916 148.2ZM188.516 131.9L189.283 131.258L188.516 131.9ZM175.016 107.4L174.066 107.712L174.068 107.718L175.016 107.4ZM175.316 46.6L176.26 46.9303L175.316 46.6ZM189.216 22.1L188.461 21.4451L188.457 21.4492L189.216 22.1ZM210.816 5.8L211.237 6.70711L210.816 5.8ZM266.216 5.8L265.793 6.70581L265.796 6.70711L266.216 5.8ZM287.716 22.1L286.957 22.7508L286.961 22.7549L287.716 22.1ZM301.616 46.6L300.67 46.9243L300.673 46.9303L301.616 46.6ZM301.916 107.4L302.866 107.712L301.916 107.4ZM288.516 131.9L289.283 132.542L288.516 131.9ZM267.116 148.2L267.535 149.108L267.116 148.2ZM255.416 147.6L256.1 148.33L256.101 148.329L255.416 147.6ZM265.416 130.9L266.366 131.214L266.367 131.211L265.416 130.9ZM270.116 106.4L269.121 106.307L269.12 106.313L270.116 106.4ZM269.816 47.6L268.822 47.7081L268.823 47.7152L269.816 47.6ZM264.616 23.2L263.671 23.5268L263.672 23.5295L264.616 23.2ZM254.516 6.49999L253.821 7.21841L253.827 7.22402L253.832 7.22953L254.516 6.49999ZM222.416 6.49999L223.1 7.22953L223.101 7.22918L222.416 6.49999ZM212.316 23.2L213.261 23.5295L213.261 23.5268L212.316 23.2ZM207.016 47.6L206.023 47.4848L206.022 47.4919L207.016 47.6ZM206.716 106.4L205.72 106.486L205.721 106.494L206.716 106.4ZM211.516 130.8L210.567 131.114L211.516 130.8ZM221.516 147.5L220.832 148.229L220.838 148.234L221.516 147.5ZM238.516 153C228.04 153 218.651 151.09 210.332 147.29L209.501 149.11C218.115 153.044 227.793 155 238.516 155V153ZM210.335 147.292C202.067 143.486 195.053 138.143 189.283 131.258L187.75 132.542C193.713 139.657 200.966 145.181 209.498 149.108L210.335 147.292ZM189.283 131.258C183.502 124.361 179.061 116.306 175.964 107.082L174.068 107.718C177.238 117.161 181.797 125.439 187.75 132.542L189.283 131.258ZM175.966 107.088C172.936 97.8659 171.416 87.8391 171.416 77H169.416C169.416 88.0275 170.963 98.2674 174.066 107.712L175.966 107.088ZM171.416 77C171.416 66.1673 173.034 56.1469 176.26 46.9303L174.373 46.2696C171.065 55.7198 169.416 65.966 169.416 77H171.416ZM176.26 46.9303C179.489 37.7058 184.062 29.6497 189.976 22.7508L188.457 21.4492C182.371 28.5503 177.677 36.8275 174.373 46.2696L176.26 46.9303ZM189.972 22.7549C195.947 15.8608 203.033 10.5138 211.237 6.70711L210.396 4.89289C201.933 8.81953 194.619 14.3392 188.461 21.4451L189.972 22.7549ZM211.237 6.70711C219.426 2.90768 228.513 0.999992 238.516 0.999992V-1.00001C228.253 -1.00001 218.874 0.958961 210.396 4.89289L211.237 6.70711ZM238.516 0.999992C248.587 0.999992 257.674 2.90812 265.793 6.70581L266.64 4.89419C258.226 0.958534 248.845 -1.00001 238.516 -1.00001V0.999992ZM265.796 6.70711C273.999 10.5133 281.05 15.8591 286.957 22.7508L288.476 21.4492C282.383 14.3409 275.101 8.82002 266.637 4.89289L265.796 6.70711ZM286.961 22.7549C292.938 29.6518 297.509 37.7044 300.67 46.9243L302.562 46.2757C299.323 36.829 294.628 28.5482 288.472 21.4451L286.961 22.7549ZM300.673 46.9303C303.898 56.1469 305.516 66.1673 305.516 77H307.516C307.516 65.966 305.868 55.7198 302.56 46.2696L300.673 46.9303ZM305.516 77C305.516 87.8391 303.996 97.8659 300.966 107.088L302.866 107.712C305.97 98.2674 307.516 88.0275 307.516 77H305.516ZM300.966 107.088C297.936 116.31 293.529 124.362 287.75 131.258L289.283 132.542C295.237 125.438 299.763 117.157 302.866 107.712L300.966 107.088ZM287.75 131.258C281.98 138.143 274.966 143.486 266.698 147.292L267.535 149.108C276.067 145.181 283.32 139.657 289.283 132.542L287.75 131.258ZM266.698 147.292C258.448 151.089 249.061 153 238.516 153V155C249.305 155 258.985 153.044 267.535 149.108L266.698 147.292ZM238.516 154.6C245.717 154.6 251.613 152.536 256.1 148.33L254.732 146.87C250.687 150.664 245.315 152.6 238.516 152.6V154.6ZM256.101 148.329C260.583 144.123 263.993 138.399 266.366 131.214L264.467 130.586C262.173 137.534 258.917 142.944 254.732 146.871L256.101 148.329ZM266.367 131.211C268.729 123.99 270.307 115.746 271.113 106.487L269.12 106.313C268.325 115.454 266.771 123.543 264.466 130.589L266.367 131.211ZM271.112 106.493C271.982 97.1923 272.416 87.3611 272.416 77H270.416C270.416 87.3056 269.984 97.0743 269.121 106.307L271.112 106.493ZM272.416 77C272.416 66.5661 271.881 56.7274 270.81 47.4848L268.823 47.7152C269.885 56.8726 270.416 66.6339 270.416 77H272.416ZM270.811 47.4919C269.804 38.2334 268.057 30.0233 265.561 22.8704L263.672 23.5295C266.109 30.51 267.829 38.5666 268.822 47.7081L270.811 47.4919ZM265.561 22.8732C263.057 15.6297 259.615 9.90908 255.2 5.77045L253.832 7.22953C257.951 11.0909 261.243 16.5037 263.671 23.5268L265.561 22.8732ZM255.212 5.78158C250.805 1.51441 245.213 -0.600006 238.516 -0.600006V1.39999C244.754 1.39999 249.828 3.35224 253.821 7.21841L255.212 5.78158ZM238.516 -0.600006C231.884 -0.600006 226.266 1.51604 221.732 5.77081L223.101 7.22918C227.234 3.35062 232.349 1.39999 238.516 1.39999V-0.600006ZM221.732 5.77045C217.318 9.90908 213.876 15.6297 211.371 22.8732L213.261 23.5268C215.69 16.5037 218.982 11.0909 223.1 7.22953L221.732 5.77045ZM211.372 22.8704C208.876 30.0206 207.096 38.2282 206.023 47.4848L208.01 47.7152C209.07 38.5717 210.823 30.5127 213.261 23.5295L211.372 22.8704ZM206.022 47.4919C205.018 56.7319 204.516 66.5682 204.516 77H206.516C206.516 66.6318 207.015 56.8681 208.011 47.7081L206.022 47.4919ZM204.516 77C204.516 87.3589 204.917 97.1878 205.72 106.486L207.713 106.314C206.915 97.0789 206.516 87.3077 206.516 77H204.516ZM205.721 106.494C206.593 115.751 208.205 123.961 210.567 131.114L212.466 130.486C210.161 123.506 208.573 115.449 207.712 106.306L205.721 106.494ZM210.567 131.114C212.94 138.299 216.35 144.023 220.832 148.229L222.201 146.771C218.016 142.844 214.76 137.434 212.466 130.486L210.567 131.114ZM220.838 148.234C225.451 152.499 231.374 154.6 238.516 154.6V152.6C231.792 152.6 226.382 150.635 222.195 146.766L220.838 148.234ZM353.96 75.2H352.96V76.2H353.96V75.2ZM353.96 74.8V73.8H352.96V74.8H353.96ZM398.96 70.9L399.481 71.7539L399.484 71.7517L398.96 70.9ZM408.66 58.9L407.736 58.5186L407.732 58.5286L408.66 58.9ZM408.66 19L407.729 19.3635L407.731 19.3704L407.734 19.3773L408.66 19ZM399.06 6.59999L399.609 5.76394L399.06 6.59999ZM317.96 2.39999H316.96V3.39999H317.96V2.39999ZM317.96 1.99998V0.999985H316.96V1.99998H317.96ZM417.26 5.89999L416.964 6.8553L416.971 6.8574L417.26 5.89999ZM436.96 17.9L436.204 18.5546L436.208 18.5592L436.96 17.9ZM437.36 60L438.123 60.6468L438.127 60.6421L437.36 60ZM418.06 71.6L418.337 72.561L418.342 72.5595L418.06 71.6ZM317.96 152H316.96V153H317.96V152ZM317.96 151.6V150.6H316.96V151.6H317.96ZM389.06 151.6H390.06V150.6H389.06V151.6ZM389.06 152V153H390.06V152H389.06ZM337.96 151.8H336.96V152.8H337.96V151.8ZM337.96 2.2V1.2H336.96V2.2H337.96ZM369.06 2.2H370.06V1.2H369.06V2.2ZM369.06 151.8V152.8H370.06V151.8H369.06ZM420.96 150.2L420.466 151.069L420.472 151.073L420.96 150.2ZM412.36 141.3L411.459 141.734L411.463 141.741L411.466 141.747L412.36 141.3ZM408.86 128.8L407.867 128.914L407.867 128.915L408.86 128.8ZM407.96 114.4L406.96 114.413V114.414L407.96 114.4ZM407.26 100L406.263 100.071L406.263 100.079L406.264 100.087L407.26 100ZM404.56 87.4L403.629 87.7656L404.56 87.4ZM353.96 75.2H352.96V76.2H353.96V75.2ZM353.96 74.8V73.8H352.96V74.8H353.96ZM421.26 79L420.804 79.8901L420.813 79.8944L421.26 79ZM433.46 90L432.595 90.5015L432.598 90.507L433.46 90ZM438.66 105.1L437.67 105.243L437.672 105.257L438.66 105.1ZM440.16 136.6L439.161 136.629L439.161 136.629L440.16 136.6ZM442.26 147.6L441.349 148.012L442.26 147.6ZM455.66 151L455.41 150.032L455.402 150.034L455.66 151ZM460.86 149.2L461.567 148.493L461.068 147.994L460.43 148.297L460.86 149.2ZM461.06 149.4L461.536 150.279L462.715 149.641L461.767 148.693L461.06 149.4ZM452.36 152.1L452.577 153.076L452.36 152.1ZM354.96 75.2V74.8H352.96V75.2H354.96ZM353.96 75.8H382.96V73.8H353.96V75.8ZM382.96 75.8C389.493 75.8 395.019 74.4728 399.481 71.7539L398.44 70.0461C394.368 72.5272 389.227 73.8 382.96 73.8V75.8ZM399.484 71.7517C404.024 68.9582 407.386 64.7772 409.589 59.2714L407.732 58.5286C405.667 63.6895 402.563 67.5085 398.436 70.0483L399.484 71.7517ZM409.585 59.2813C411.849 53.7908 412.96 47.0183 412.96 39H410.96C410.96 46.8484 409.871 53.3425 407.736 58.5187L409.585 59.2813ZM412.96 39C412.96 30.981 411.849 24.1773 409.586 18.6227L407.734 19.3773C409.871 24.6227 410.96 31.1523 410.96 39H412.96ZM409.592 18.6365C407.395 13.0064 404.074 8.69436 399.609 5.76394L398.512 7.43604C402.579 10.1056 405.659 14.0603 407.729 19.3635L409.592 18.6365ZM399.609 5.76394C395.142 2.83273 389.606 1.39999 383.06 1.39999V3.39999C389.315 3.39999 394.445 4.76726 398.512 7.43604L399.609 5.76394ZM383.06 1.39999H317.96V3.39999H383.06V1.39999ZM318.96 2.39999V1.99998H316.96V2.39999H318.96ZM317.96 2.99998H388.06V0.999985H317.96V2.99998ZM388.06 2.99998C399.051 2.99998 408.681 4.29142 416.964 6.85528L417.556 4.9447C409.039 2.30856 399.202 0.999985 388.06 0.999985V2.99998ZM416.971 6.8574C425.229 9.34779 431.619 13.2589 436.204 18.5546L437.716 17.2454C432.835 11.6077 426.091 7.51885 417.549 4.94258L416.971 6.8574ZM436.208 18.5592C440.75 23.7408 443.06 30.5233 443.06 39H445.06C445.06 30.1434 442.637 22.8592 437.712 17.2408L436.208 18.5592ZM443.06 39C443.06 47.4914 440.875 54.2455 436.594 59.3579L438.127 60.6421C442.778 55.0879 445.06 47.842 445.06 39H443.06ZM436.598 59.3532C432.287 64.4356 426.041 68.2142 417.778 70.6405L418.342 72.5595C426.879 70.0525 433.5 66.0977 438.123 60.6468L436.598 59.3532ZM417.783 70.6391C409.565 73.006 399.663 74.2 388.06 74.2V76.2C399.79 76.2 409.889 74.994 418.337 72.5609L417.783 70.6391ZM388.06 74.2H353.96V76.2H388.06V74.2ZM318.96 152V151.6H316.96V152H318.96ZM317.96 152.6H389.06V150.6H317.96V152.6ZM388.06 151.6V152H390.06V151.6H388.06ZM389.06 151H317.96V153H389.06V151ZM338.96 151.8V2.2H336.96V151.8H338.96ZM337.96 3.2H369.06V1.2H337.96V3.2ZM368.06 2.2V151.8H370.06V2.2H368.06ZM369.06 150.8H337.96V152.8H369.06V150.8ZM437.06 152.5C430.351 152.5 425.175 151.412 421.448 149.327L420.472 151.073C424.612 153.388 430.169 154.5 437.06 154.5V152.5ZM421.455 149.331C417.748 147.222 415.027 144.397 413.255 140.853L411.466 141.747C413.427 145.67 416.439 148.778 420.466 151.069L421.455 149.331ZM413.261 140.866C411.515 137.244 410.375 133.187 409.854 128.685L407.867 128.915C408.411 133.613 409.606 137.889 411.459 141.734L413.261 140.866ZM409.854 128.686C409.324 124.055 409.026 119.288 408.96 114.386L406.96 114.414C407.027 119.379 407.329 124.212 407.867 128.914L409.854 128.686ZM408.96 114.387C408.893 109.364 408.659 104.54 408.256 99.9134L406.264 100.087C406.662 104.66 406.894 109.436 406.96 114.413L408.96 114.387ZM408.258 99.9287C407.918 95.1775 407 90.876 405.491 87.0343L403.629 87.7656C405.053 91.3906 405.935 95.4891 406.263 100.071L408.258 99.9287ZM405.491 87.0343C403.947 83.1044 401.377 79.9728 397.803 77.6604L396.717 79.3396C399.943 81.4272 402.24 84.2289 403.629 87.7656L405.491 87.0343ZM397.803 77.6604C394.178 75.3148 389.194 74.2 382.96 74.2V76.2C388.993 76.2 393.542 77.2852 396.717 79.3396L397.803 77.6604ZM382.96 74.2H353.96V76.2H382.96V74.2ZM354.96 75.2V74.8H352.96V75.2H354.96ZM353.96 75.8H399.06V73.8H353.96V75.8ZM399.06 75.8C408.31 75.8 415.533 77.1902 420.804 79.89L421.716 78.11C416.054 75.2098 408.477 73.8 399.06 73.8V75.8ZM420.813 79.8944C426.132 82.5538 430.04 86.0947 432.595 90.5015L434.325 89.4985C431.547 84.7053 427.322 80.9128 421.707 78.1056L420.813 79.8944ZM432.598 90.507C435.195 94.9216 436.888 99.83 437.67 105.243L439.65 104.957C438.832 99.3033 437.059 94.1451 434.322 89.493L432.598 90.507ZM437.672 105.257C438.531 110.672 438.96 116.086 438.96 121.5H440.96C440.96 115.98 440.523 110.461 439.648 104.943L437.672 105.257ZM438.96 121.5C438.96 126.975 439.027 132.018 439.161 136.629L441.16 136.571C441.027 131.982 440.96 126.959 440.96 121.5H438.96ZM439.161 136.629C439.296 141.238 440.008 145.049 441.349 148.012L443.171 147.188C441.979 144.551 441.291 141.029 441.16 136.571L439.161 136.629ZM441.349 148.012C442.058 149.58 443.108 150.798 444.506 151.614C445.895 152.424 447.564 152.8 449.46 152.8V150.8C447.823 150.8 446.525 150.476 445.514 149.886C444.512 149.302 443.729 148.42 443.171 147.188L441.349 148.012ZM449.46 152.8C451.678 152.8 453.831 152.523 455.918 151.966L455.402 150.034C453.489 150.544 451.509 150.8 449.46 150.8V152.8ZM455.91 151.968C458.017 151.424 459.815 150.805 461.29 150.103L460.43 148.297C459.105 148.928 457.436 149.509 455.41 150.032L455.91 151.968ZM460.153 149.907L460.353 150.107L461.767 148.693L461.567 148.493L460.153 149.907ZM460.584 148.521C459.119 149.314 456.342 150.191 452.143 151.124L452.577 153.076C456.778 152.143 459.801 151.219 461.536 150.279L460.584 148.521ZM452.143 151.124C448.036 152.036 443.013 152.5 437.06 152.5V154.5C443.107 154.5 448.284 154.03 452.577 153.076L452.143 151.124ZM493.398 152H492.398V153H493.398V152ZM493.398 151.6V150.6H492.398V151.6H493.398ZM515.398 151.6V152.6H516.398V151.6H515.398ZM515.398 2.39999H516.398V1.39999H515.398V2.39999ZM488.198 6.2L487.675 5.34737L487.669 5.35121L488.198 6.2ZM477.698 16.7L476.862 16.1511L476.86 16.1541L477.698 16.7ZM470.698 31.9L469.744 31.6005L470.698 31.9ZM466.798 50V51H467.679L467.79 50.1253L466.798 50ZM466.398 50H465.398V51H466.398V50ZM466.398 1.99998V0.999985H465.398V1.99998H466.398ZM595.498 1.99998H596.498V0.999985H595.498V1.99998ZM595.498 50V51H596.498V50H595.498ZM594.998 50L594.004 50.115L594.107 51H594.998V50ZM591.198 31.9L590.244 32.1995L591.198 31.9ZM584.098 16.7L583.256 17.2401L583.261 17.2474L583.266 17.2547L584.098 16.7ZM573.598 6.2L573.069 7.0488L573.075 7.0526L573.598 6.2ZM546.498 2.39999V1.39999H545.498V2.39999H546.498ZM546.498 151.6H545.498V152.6H546.498V151.6ZM568.498 151.6H569.498V150.6H568.498V151.6ZM568.498 152V153H569.498V152H568.498ZM494.398 152V151.6H492.398V152H494.398ZM493.398 152.6H515.398V150.6H493.398V152.6ZM516.398 151.6V2.39999H514.398V151.6H516.398ZM515.398 1.39999H502.398V3.39999H515.398V1.39999ZM502.398 1.39999C496.899 1.39999 491.981 2.70817 487.675 5.34739L488.72 7.0526C492.681 4.62515 497.23 3.39999 502.398 3.39999V1.39999ZM487.669 5.35121C483.466 7.9695 479.865 11.5774 476.862 16.1511L478.534 17.2489C481.397 12.8892 484.796 9.49715 488.726 7.04877L487.669 5.35121ZM476.86 16.1541C473.937 20.6406 471.567 25.7924 469.744 31.6005L471.652 32.1995C473.428 26.541 475.725 21.5594 478.536 17.2459L476.86 16.1541ZM469.744 31.6005C467.925 37.394 466.613 43.4859 465.806 49.8747L467.79 50.1253C468.583 43.8474 469.871 37.8726 471.652 32.1995L469.744 31.6005ZM466.798 49H466.398V51H466.798V49ZM467.398 50V1.99998H465.398V50H467.398ZM466.398 2.99998H595.498V0.999985H466.398V2.99998ZM594.498 1.99998V50H596.498V1.99998H594.498ZM595.498 49H594.998V51H595.498V49ZM595.991 49.885C595.251 43.4928 593.972 37.3974 592.152 31.6005L590.244 32.1995C592.024 37.8692 593.278 43.8405 594.004 50.115L595.991 49.885ZM592.152 31.6005C590.327 25.7888 587.922 20.634 584.93 16.1453L583.266 17.2547C586.14 21.566 588.468 26.5445 590.244 32.1995L592.152 31.6005ZM584.939 16.1599C581.999 11.5785 578.394 7.96674 574.12 5.34739L573.075 7.0526C577.068 9.4999 580.463 12.8881 583.256 17.2401L584.939 16.1599ZM574.126 5.35121C569.882 2.70689 564.96 1.39999 559.398 1.39999V3.39999C564.635 3.39999 569.18 4.62643 573.069 7.04877L574.126 5.35121ZM559.398 1.39999H546.498V3.39999H559.398V1.39999ZM545.498 2.39999V151.6H547.498V2.39999H545.498ZM546.498 152.6H568.498V150.6H546.498V152.6ZM567.498 151.6V152H569.498V151.6H567.498ZM568.498 151H493.398V153H568.498V151ZM83.275 271.4L82.2992 271.618L82.4741 272.4H83.275V271.4ZM77.975 259.1L77.1429 259.655L77.1475 259.661L77.975 259.1ZM68.275 250L68.7743 249.134H68.7743L68.275 250ZM41.775 246.6H40.775V247.6H41.775V246.6ZM41.775 246.2V245.2H40.775V246.2H41.775ZM68.275 243.1L68.7464 243.982L68.7518 243.979L68.275 243.1ZM77.975 234.5L78.7928 235.075L77.975 234.5ZM83.275 222.4V221.4H82.4741L82.2992 222.182L83.275 222.4ZM83.675 222.4H84.675V221.4H83.675V222.4ZM83.675 271.4V272.4H84.675V271.4H83.675ZM111.775 171H112.775V170H111.775V171ZM111.775 212V213H112.775V212H111.775ZM111.375 212L110.385 212.139L110.505 213H111.375V212ZM104.975 192.1L104.086 192.559L104.092 192.57L104.975 192.1ZM91.975 177.1L91.3995 177.918L91.4042 177.921L91.975 177.1ZM49.775 171.4V170.4H48.775V171.4H49.775ZM49.775 320.6H48.775V321.6H49.775V320.6ZM69.775 320.6H70.775V319.6H69.775V320.6ZM69.775 321V322H70.775V321H69.775ZM0.674999 321H-0.325001V322H0.674999V321ZM0.674999 320.6V319.6H-0.325001V320.6H0.674999ZM18.675 320.6V321.6H19.675V320.6H18.675ZM18.675 171.4H19.675V170.4H18.675V171.4ZM0.674999 171.4H-0.325001V172.4H0.674999V171.4ZM0.674999 171V170H-0.325001V171H0.674999ZM84.2508 271.182C83.2238 266.594 81.4074 262.377 78.8025 258.538L77.1475 259.661C79.6092 263.289 81.3262 267.273 82.2992 271.618L84.2508 271.182ZM78.8071 258.545C76.1888 254.618 72.8419 251.478 68.7743 249.134L67.7757 250.866C71.5748 253.056 74.6945 255.982 77.143 259.655L78.8071 258.545ZM68.7743 249.134C64.6721 246.77 59.9961 245.6 54.775 245.6V247.6C59.6872 247.6 64.0113 248.697 67.7757 250.866L68.7743 249.134ZM54.775 245.6H41.775V247.6H54.775V245.6ZM42.775 246.6V246.2H40.775V246.6H42.775ZM41.775 247.2H54.775V245.2H41.775V247.2ZM54.775 247.2C60.0446 247.2 64.7117 246.138 68.7464 243.982L67.8036 242.218C64.1049 244.195 59.772 245.2 54.775 245.2V247.2ZM68.7518 243.979C72.8183 241.773 76.1692 238.804 78.7928 235.075L77.1572 233.924C74.7141 237.396 71.5983 240.16 67.7982 242.221L68.7518 243.979ZM78.7928 235.075C81.4048 231.364 83.2233 227.208 84.2508 222.618L82.2992 222.182C81.3267 226.525 79.6119 230.436 77.1572 233.924L78.7928 235.075ZM83.275 223.4H83.675V221.4H83.275V223.4ZM82.675 222.4V271.4H84.675V222.4H82.675ZM83.675 270.4H83.275V272.4H83.675V270.4ZM110.775 171V212H112.775V171H110.775ZM111.775 211H111.375V213H111.775V211ZM112.365 211.861C111.35 204.616 109.181 197.87 105.858 191.63L104.092 192.57C107.302 198.596 109.4 205.117 110.385 212.139L112.365 211.861ZM105.864 191.641C102.593 185.304 98.1528 180.176 92.5458 176.279L91.4042 177.921C96.7305 181.623 100.957 186.496 104.086 192.559L105.864 191.641ZM92.5505 176.282C86.9605 172.348 80.3197 170.4 72.675 170.4V172.4C79.9637 172.4 86.1895 174.252 91.3995 177.918L92.5505 176.282ZM72.675 170.4H49.775V172.4H72.675V170.4ZM48.775 171.4V320.6H50.775V171.4H48.775ZM49.775 321.6H69.775V319.6H49.775V321.6ZM68.775 320.6V321H70.775V320.6H68.775ZM69.775 320H0.674999V322H69.775V320ZM1.675 321V320.6H-0.325001V321H1.675ZM0.674999 321.6H18.675V319.6H0.674999V321.6ZM19.675 320.6V171.4H17.675V320.6H19.675ZM18.675 170.4H0.674999V172.4H18.675V170.4ZM1.675 171.4V171H-0.325001V171.4H1.675ZM0.674999 172H111.775V170H0.674999V172ZM165.092 317.2L164.674 318.108L164.677 318.11L165.092 317.2ZM143.692 300.9L144.459 300.258L143.692 300.9ZM130.192 276.4L129.242 276.712L129.244 276.718L130.192 276.4ZM130.492 215.6L131.436 215.93L130.492 215.6ZM144.392 191.1L143.636 190.445L143.633 190.449L144.392 191.1ZM165.992 174.8L166.413 175.707L165.992 174.8ZM221.392 174.8L220.969 175.706L220.971 175.707L221.392 174.8ZM242.892 191.1L242.133 191.751L242.137 191.755L242.892 191.1ZM256.792 215.6L255.846 215.924L255.848 215.93L256.792 215.6ZM257.092 276.4L258.042 276.712L257.092 276.4ZM243.692 300.9L244.459 301.542L243.692 300.9ZM222.292 317.2L222.71 318.108L222.292 317.2ZM210.592 316.6L211.276 317.33L211.277 317.329L210.592 316.6ZM220.592 299.9L221.542 300.214L221.543 300.211L220.592 299.9ZM225.292 275.4L224.297 275.307L224.296 275.313L225.292 275.4ZM224.992 216.6L223.998 216.708L223.999 216.715L224.992 216.6ZM219.792 192.2L218.847 192.527L218.848 192.53L219.792 192.2ZM209.692 175.5L208.997 176.218L209.002 176.224L209.008 176.23L209.692 175.5ZM177.592 175.5L178.276 176.23L178.277 176.229L177.592 175.5ZM167.492 192.2L168.436 192.53L168.437 192.527L167.492 192.2ZM162.192 216.6L161.199 216.485L161.198 216.492L162.192 216.6ZM161.892 275.4L160.896 275.486L160.897 275.494L161.892 275.4ZM166.692 299.8L165.743 300.114L166.692 299.8ZM176.692 316.5L176.008 317.229L176.013 317.234L176.692 316.5ZM193.692 322C183.216 322 173.827 320.09 165.508 316.29L164.677 318.11C173.291 322.044 182.969 324 193.692 324V322ZM165.51 316.292C157.243 312.486 150.229 307.143 144.459 300.258L142.926 301.542C148.889 308.657 156.141 314.181 164.674 318.108L165.51 316.292ZM144.459 300.258C138.678 293.361 134.237 285.306 131.14 276.082L129.244 276.718C132.414 286.161 136.973 294.439 142.926 301.542L144.459 300.258ZM131.142 276.088C128.112 266.866 126.592 256.839 126.592 246H124.592C124.592 257.028 126.139 267.267 129.242 276.712L131.142 276.088ZM126.592 246C126.592 235.167 128.21 225.147 131.436 215.93L129.548 215.27C126.241 224.72 124.592 234.966 124.592 246H126.592ZM131.436 215.93C134.665 206.706 139.238 198.65 145.151 191.751L143.633 190.449C137.546 197.55 132.853 205.828 129.548 215.27L131.436 215.93ZM145.148 191.755C151.123 184.861 158.209 179.514 166.413 175.707L165.571 173.893C157.109 177.82 149.795 183.339 143.637 190.445L145.148 191.755ZM166.413 175.707C174.601 171.908 183.689 170 193.692 170V168C183.429 168 174.05 169.959 165.571 173.893L166.413 175.707ZM193.692 170C203.763 170 212.849 171.908 220.969 175.706L221.816 173.894C213.402 169.959 204.021 168 193.692 168V170ZM220.971 175.707C229.174 179.513 236.226 184.859 242.133 191.751L243.651 190.449C237.559 183.341 230.277 177.82 221.813 173.893L220.971 175.707ZM242.137 191.755C248.114 198.652 252.685 206.704 255.846 215.924L257.738 215.276C254.499 205.829 249.804 197.548 243.648 190.445L242.137 191.755ZM255.848 215.93C259.074 225.147 260.692 235.167 260.692 246H262.692C262.692 234.966 261.044 224.72 257.736 215.27L255.848 215.93ZM260.692 246C260.692 256.839 259.172 266.866 256.142 276.088L258.042 276.712C261.146 267.267 262.692 257.028 262.692 246H260.692ZM256.142 276.088C253.112 285.31 248.705 293.362 242.926 300.258L244.459 301.542C250.413 294.438 254.939 286.157 258.042 276.712L256.142 276.088ZM242.926 300.258C237.155 307.143 230.141 312.486 221.874 316.292L222.71 318.108C231.243 314.181 238.496 308.657 244.459 301.542L242.926 300.258ZM221.874 316.292C213.624 320.089 204.237 322 193.692 322V324C204.481 324 214.161 322.044 222.71 318.108L221.874 316.292ZM193.692 323.6C200.893 323.6 206.789 321.536 211.276 317.33L209.908 315.87C205.862 319.664 200.491 321.6 193.692 321.6V323.6ZM211.277 317.329C215.759 313.123 219.169 307.399 221.542 300.214L219.643 299.586C217.349 306.534 214.093 311.944 209.908 315.871L211.277 317.329ZM221.543 300.211C223.904 292.99 225.483 284.746 226.288 275.487L224.296 275.313C223.501 284.454 221.947 292.543 219.642 299.589L221.543 300.211ZM226.288 275.493C227.158 266.192 227.592 256.361 227.592 246H225.592C225.592 256.306 225.16 266.074 224.297 275.307L226.288 275.493ZM227.592 246C227.592 235.566 227.057 225.727 225.986 216.485L223.999 216.715C225.061 225.873 225.592 235.634 225.592 246H227.592ZM225.986 216.492C224.98 207.233 223.233 199.023 220.736 191.87L218.848 192.53C221.285 199.51 223.004 207.567 223.998 216.708L225.986 216.492ZM220.737 191.873C218.233 184.63 214.791 178.909 210.376 174.77L209.008 176.23C213.127 180.091 216.419 185.504 218.847 192.527L220.737 191.873ZM210.388 174.782C205.981 170.514 200.388 168.4 193.692 168.4V170.4C199.929 170.4 205.004 172.352 208.997 176.218L210.388 174.782ZM193.692 168.4C187.059 168.4 181.442 170.516 176.908 174.771L178.277 176.229C182.409 172.351 187.525 170.4 193.692 170.4V168.4ZM176.908 174.77C172.494 178.909 169.052 184.63 166.547 191.873L168.437 192.527C170.866 185.504 174.157 180.091 178.276 176.23L176.908 174.77ZM166.548 191.87C164.052 199.021 162.272 207.228 161.199 216.485L163.186 216.715C164.246 207.572 165.999 199.513 168.436 192.53L166.548 191.87ZM161.198 216.492C160.194 225.732 159.692 235.568 159.692 246H161.692C161.692 235.632 162.191 225.868 163.186 216.708L161.198 216.492ZM159.692 246C159.692 256.359 160.093 266.188 160.896 275.486L162.888 275.314C162.091 266.079 161.692 256.308 161.692 246H159.692ZM160.897 275.494C161.769 284.751 163.381 292.961 165.743 300.114L167.642 299.486C165.337 292.506 163.749 284.449 162.888 275.306L160.897 275.494ZM165.743 300.114C168.115 307.299 171.526 313.023 176.008 317.229L177.376 315.771C173.192 311.844 169.936 306.434 167.642 299.486L165.743 300.114ZM176.013 317.234C180.627 321.499 186.55 323.6 193.692 323.6V321.6C186.968 321.6 181.557 319.635 177.371 315.766L176.013 317.234ZM273.136 321H272.136V322H273.136V321ZM273.136 320.6V319.6H272.136V320.6H273.136ZM291.136 320.6V321.6H292.136V320.6H291.136ZM291.136 171.4H292.136V170.4H291.136V171.4ZM273.136 171.4H272.136V172.4H273.136V171.4ZM273.136 171V170H272.136V171H273.136ZM340.136 171H341.136V170H340.136V171ZM340.136 171.4V172.4H341.136V171.4H340.136ZM322.236 171.4V170.4H321.236V171.4H322.236ZM322.236 320.6H321.236V321.6H322.236V320.6ZM361.836 317.3L362.213 318.226L362.223 318.222L361.836 317.3ZM375.336 307.9L374.593 307.23L374.593 307.231L375.336 307.9ZM383.936 293.7L383.004 293.336L383.002 293.343L383.936 293.7ZM388.236 276V275H387.345L387.243 275.885L388.236 276ZM388.636 276H389.636V275H388.636V276ZM388.636 321V322H389.636V321H388.636ZM274.136 321V320.6H272.136V321H274.136ZM273.136 321.6H291.136V319.6H273.136V321.6ZM292.136 320.6V171.4H290.136V320.6H292.136ZM291.136 170.4H273.136V172.4H291.136V170.4ZM274.136 171.4V171H272.136V171.4H274.136ZM273.136 172H340.136V170H273.136V172ZM339.136 171V171.4H341.136V171H339.136ZM340.136 170.4H322.236V172.4H340.136V170.4ZM321.236 171.4V320.6H323.236V171.4H321.236ZM322.236 321.6H342.636V319.6H322.236V321.6ZM342.636 321.6C350.132 321.6 356.666 320.486 362.213 318.226L361.459 316.374C356.206 318.514 349.94 319.6 342.636 319.6V321.6ZM362.223 318.222C367.747 315.903 372.372 312.688 376.079 308.569L374.593 307.231C371.1 311.112 366.725 314.163 361.449 316.378L362.223 318.222ZM376.079 308.57C379.832 304.407 382.762 299.566 384.87 294.057L383.002 293.343C380.977 298.634 378.173 303.26 374.593 307.23L376.079 308.57ZM384.868 294.064C387.035 288.51 388.487 282.526 389.229 276.115L387.243 275.885C386.518 282.14 385.104 287.956 383.004 293.336L384.868 294.064ZM388.236 277H388.636V275H388.236V277ZM387.636 276V321H389.636V276H387.636ZM388.636 320H273.136V322H388.636V320ZM395.987 321H394.987V322H395.987V321ZM395.987 320.6V319.6H394.987V320.6H395.987ZM417.987 320.6V321.6H418.987V320.6H417.987ZM417.987 171.4H418.987V170.4H417.987V171.4ZM395.987 171.4H394.987V172.4H395.987V171.4ZM395.987 171V170H394.987V171H395.987ZM473.087 171H474.087V170H473.087V171ZM473.087 171.4V172.4H474.087V171.4H473.087ZM449.087 171.4V170.4H448.087V171.4H449.087ZM449.087 320.6H448.087V321.6H449.087V320.6ZM473.087 320.6H474.087V319.6H473.087V320.6ZM473.087 321V322H474.087V321H473.087ZM396.987 321V320.6H394.987V321H396.987ZM395.987 321.6H417.987V319.6H395.987V321.6ZM418.987 320.6V171.4H416.987V320.6H418.987ZM417.987 170.4H395.987V172.4H417.987V170.4ZM396.987 171.4V171H394.987V171.4H396.987ZM395.987 172H473.087V170H395.987V172ZM472.087 171V171.4H474.087V171H472.087ZM473.087 170.4H449.087V172.4H473.087V170.4ZM448.087 171.4V320.6H450.087V171.4H448.087ZM449.087 321.6H473.087V319.6H449.087V321.6ZM472.087 320.6V321H474.087V320.6H472.087ZM473.087 320H395.987V322H473.087V320ZM523.881 317.2L523.463 318.108L523.466 318.11L523.881 317.2ZM502.481 300.9L503.248 300.258L502.481 300.9ZM488.981 276.4L488.031 276.712L488.033 276.718L488.981 276.4ZM489.281 215.6L490.225 215.93L489.281 215.6ZM503.181 191.1L502.426 190.445L502.422 190.449L503.181 191.1ZM524.781 174.8L525.202 175.707L524.781 174.8ZM580.181 174.8L579.758 175.706L579.76 175.707L580.181 174.8ZM601.681 191.1L600.922 191.751L600.926 191.755L601.681 191.1ZM615.581 215.6L614.635 215.924L614.637 215.93L615.581 215.6ZM615.881 276.4L616.831 276.712L615.881 276.4ZM602.481 300.9L603.248 301.542L602.481 300.9ZM581.081 317.2L581.499 318.108L581.081 317.2ZM569.381 316.6L570.065 317.33L570.066 317.329L569.381 316.6ZM579.381 299.9L580.331 300.214L580.332 300.211L579.381 299.9ZM584.081 275.4L583.086 275.307L583.085 275.313L584.081 275.4ZM583.781 216.6L582.787 216.708L582.788 216.715L583.781 216.6ZM578.581 192.2L577.636 192.527L577.637 192.53L578.581 192.2ZM568.481 175.5L567.786 176.218L567.791 176.224L567.797 176.23L568.481 175.5ZM536.381 175.5L537.065 176.23L537.066 176.229L536.381 175.5ZM526.281 192.2L527.225 192.53L527.226 192.527L526.281 192.2ZM520.981 216.6L519.988 216.485L519.987 216.492L520.981 216.6ZM520.681 275.4L519.685 275.486L519.686 275.494L520.681 275.4ZM525.481 299.8L524.532 300.114L525.481 299.8ZM535.481 316.5L534.797 317.229L534.802 317.234L535.481 316.5ZM552.481 322C542.005 322 532.616 320.09 524.297 316.29L523.466 318.11C532.08 322.044 541.758 324 552.481 324V322ZM524.299 316.292C516.032 312.486 509.018 307.143 503.248 300.258L501.715 301.542C507.678 308.657 514.93 314.181 523.463 318.108L524.299 316.292ZM503.248 300.258C497.467 293.361 493.026 285.306 489.929 276.082L488.033 276.718C491.203 286.161 495.762 294.439 501.715 301.542L503.248 300.258ZM489.931 276.088C486.901 266.866 485.381 256.839 485.381 246H483.381C483.381 257.028 484.928 267.267 488.031 276.712L489.931 276.088ZM485.381 246C485.381 235.167 486.999 225.147 490.225 215.93L488.337 215.27C485.03 224.72 483.381 234.966 483.381 246H485.381ZM490.225 215.93C493.454 206.706 498.027 198.65 503.94 191.751L502.422 190.449C496.335 197.55 491.642 205.828 488.337 215.27L490.225 215.93ZM503.937 191.755C509.912 184.861 516.998 179.514 525.202 175.707L524.36 173.893C515.898 177.82 508.584 183.339 502.426 190.445L503.937 191.755ZM525.202 175.707C533.391 171.908 542.478 170 552.481 170V168C542.218 168 532.839 169.959 524.36 173.893L525.202 175.707ZM552.481 170C562.552 170 571.638 171.908 579.758 175.706L580.605 173.894C572.191 169.959 562.81 168 552.481 168V170ZM579.76 175.707C587.963 179.513 595.015 184.859 600.922 191.751L602.44 190.449C596.348 183.341 589.066 177.82 580.602 173.893L579.76 175.707ZM600.926 191.755C606.903 198.652 611.474 206.704 614.635 215.924L616.527 215.276C613.288 205.829 608.593 197.548 602.437 190.445L600.926 191.755ZM614.637 215.93C617.863 225.147 619.481 235.167 619.481 246H621.481C621.481 234.966 619.833 224.72 616.525 215.27L614.637 215.93ZM619.481 246C619.481 256.839 617.961 266.866 614.931 276.088L616.831 276.712C619.935 267.267 621.481 257.028 621.481 246H619.481ZM614.931 276.088C611.901 285.31 607.494 293.362 601.715 300.258L603.248 301.542C609.202 294.438 613.728 286.157 616.831 276.712L614.931 276.088ZM601.715 300.258C595.944 307.143 588.93 312.486 580.663 316.292L581.499 318.108C590.032 314.181 597.285 308.657 603.248 301.542L601.715 300.258ZM580.663 316.292C572.413 320.089 563.026 322 552.481 322V324C563.27 324 572.95 322.044 581.499 318.108L580.663 316.292ZM552.481 323.6C559.682 323.6 565.578 321.536 570.065 317.33L568.697 315.87C564.651 319.664 559.28 321.6 552.481 321.6V323.6ZM570.066 317.329C574.548 313.123 577.958 307.399 580.331 300.214L578.432 299.586C576.138 306.534 572.882 311.944 568.697 315.871L570.066 317.329ZM580.332 300.211C582.694 292.99 584.272 284.746 585.078 275.487L583.085 275.313C582.29 284.454 580.736 292.543 578.431 299.589L580.332 300.211ZM585.077 275.493C585.947 266.192 586.381 256.361 586.381 246H584.381C584.381 256.306 583.949 266.074 583.086 275.307L585.077 275.493ZM586.381 246C586.381 235.566 585.846 225.727 584.775 216.485L582.788 216.715C583.85 225.873 584.381 235.634 584.381 246H586.381ZM584.775 216.492C583.769 207.233 582.022 199.023 579.525 191.87L577.637 192.53C580.074 199.51 581.793 207.567 582.787 216.708L584.775 216.492ZM579.526 191.873C577.022 184.63 573.58 178.909 569.165 174.77L567.797 176.23C571.916 180.091 575.208 185.504 577.636 192.527L579.526 191.873ZM569.177 174.782C564.77 170.514 559.177 168.4 552.481 168.4V170.4C558.718 170.4 563.793 172.352 567.786 176.218L569.177 174.782ZM552.481 168.4C545.848 168.4 540.231 170.516 535.697 174.771L537.066 176.229C541.198 172.351 546.314 170.4 552.481 170.4V168.4ZM535.697 174.77C531.283 178.909 527.841 184.63 525.336 191.873L527.226 192.527C529.655 185.504 532.946 180.091 537.065 176.23L535.697 174.77ZM525.337 191.87C522.841 199.021 521.061 207.228 519.988 216.485L521.975 216.715C523.035 207.572 524.788 199.513 527.225 192.53L525.337 191.87ZM519.987 216.492C518.983 225.732 518.481 235.568 518.481 246H520.481C520.481 235.632 520.98 225.868 521.975 216.708L519.987 216.492ZM518.481 246C518.481 256.359 518.882 266.188 519.685 275.486L521.678 275.314C520.88 266.079 520.481 256.308 520.481 246H518.481ZM519.686 275.494C520.558 284.751 522.17 292.961 524.532 300.114L526.431 299.486C524.126 292.506 522.538 284.449 521.677 275.306L519.686 275.494ZM524.532 300.114C526.904 307.299 530.315 313.023 534.797 317.229L536.166 315.771C531.981 311.844 528.725 306.434 526.431 299.486L524.532 300.114ZM534.802 317.234C539.416 321.499 545.339 323.6 552.481 323.6V321.6C545.757 321.6 540.346 319.635 536.16 315.766L534.802 317.234Z" fill="white"/>
</svg>
